<svg xmlns="http://www.w3.org/2000/svg" xmlns:xlink="http://www.w3.org/1999/xlink" width="474" zoomAndPan="magnify" viewBox="0 0 355.5 458.999989" height="612" preserveAspectRatio="xMidYMid meet" version="1.0"><defs><filter x="0%" y="0%" width="100%" height="100%" id="2aae8ee199"><feColorMatrix values="0 0 0 0 1 0 0 0 0 1 0 0 0 0 1 0 0 0 1 0" color-interpolation-filters="sRGB"/></filter><filter x="0%" y="0%" width="100%" height="100%" id="a2c06da1c0"><feColorMatrix values="0 0 0 0 1 0 0 0 0 1 0 0 0 0 1 0 0 0 -1 1" color-interpolation-filters="sRGB"/></filter><filter x="0%" y="0%" width="100%" height="100%" id="08b1d86091"><feImage x="0" y="0" result="source" width="511.92" xlink:href="#6332f560f3" height="660.959984"/><feImage x="0" y="0" result="destination" width="511.92" xlink:href="#7b8b4a3a03" height="660.959984"/><feBlend in2="destination" mode="multiply" color-interpolation-filters="sRGB" in="source"/></filter><filter x="0%" y="0%" width="100%" height="100%" id="1615f6e0d8"><feImage x="0" y="0" result="source" width="511.92" xlink:href="#1b5d0a9625" height="660.959984"/><feImage x="0" y="0" result="destination" width="511.92" xlink:href="#47f55d1d58" height="660.959984"/><feComposite color-interpolation-filters="sRGB" in="source" k1="0" k2="1" k3="1" k4="0" in2="destination" operator="arithmetic"/></filter><clipPath id="dd2244a1f9"><path d="M 0 0.324219 L 355 0.324219 L 355 458.675781 L 0 458.675781 Z M 0 0.324219 " clip-rule="nonzero"/></clipPath><linearGradient x1="0" gradientTransform="matrix(0.75, 0, 0, 0.75, 0, 0.322326)" y1="0" x2="0" gradientUnits="userSpaceOnUse" y2="611.14051" id="6d2593b9af"><stop stop-opacity="1" stop-color="rgb(15.699768%, 31.799316%, 45.498657%)" offset="0"/><stop stop-opacity="1" stop-color="rgb(15.90271%, 31.922913%, 45.640564%)" offset="0.00390625"/><stop stop-opacity="1" stop-color="rgb(16.105652%, 32.046509%, 45.783997%)" offset="0.0078125"/><stop stop-opacity="1" stop-color="rgb(16.308594%, 32.170105%, 45.925903%)" offset="0.0117188"/><stop stop-opacity="1" stop-color="rgb(16.511536%, 32.293701%, 46.069336%)" offset="0.015625"/><stop stop-opacity="1" stop-color="rgb(16.714478%, 32.417297%, 46.211243%)" offset="0.0195312"/><stop stop-opacity="1" stop-color="rgb(16.918945%, 32.540894%, 46.353149%)" offset="0.0234375"/><stop stop-opacity="1" stop-color="rgb(17.121887%, 32.66449%, 46.495056%)" offset="0.0273438"/><stop stop-opacity="1" stop-color="rgb(17.324829%, 32.788086%, 46.638489%)" offset="0.03125"/><stop stop-opacity="1" stop-color="rgb(17.527771%, 32.911682%, 46.780396%)" offset="0.0351562"/><stop stop-opacity="1" stop-color="rgb(17.732239%, 33.035278%, 46.922302%)" offset="0.0390625"/><stop stop-opacity="1" stop-color="rgb(17.935181%, 33.158875%, 47.064209%)" offset="0.0429688"/><stop stop-opacity="1" stop-color="rgb(18.138123%, 33.282471%, 47.207642%)" offset="0.046875"/><stop stop-opacity="1" stop-color="rgb(18.341064%, 33.406067%, 47.349548%)" offset="0.0507812"/><stop stop-opacity="1" stop-color="rgb(18.544006%, 33.529663%, 47.492981%)" offset="0.0546875"/><stop stop-opacity="1" stop-color="rgb(18.746948%, 33.653259%, 47.634888%)" offset="0.0585938"/><stop stop-opacity="1" stop-color="rgb(18.951416%, 33.778381%, 47.776794%)" offset="0.0625"/><stop stop-opacity="1" stop-color="rgb(19.154358%, 33.901978%, 47.918701%)" offset="0.0664062"/><stop stop-opacity="1" stop-color="rgb(19.3573%, 34.025574%, 48.062134%)" offset="0.0703125"/><stop stop-opacity="1" stop-color="rgb(19.560242%, 34.14917%, 48.204041%)" offset="0.0742188"/><stop stop-opacity="1" stop-color="rgb(19.763184%, 34.272766%, 48.347473%)" offset="0.078125"/><stop stop-opacity="1" stop-color="rgb(19.966125%, 34.396362%, 48.48938%)" offset="0.0820312"/><stop stop-opacity="1" stop-color="rgb(20.170593%, 34.519958%, 48.631287%)" offset="0.0859375"/><stop stop-opacity="1" stop-color="rgb(20.373535%, 34.643555%, 48.773193%)" offset="0.0898438"/><stop stop-opacity="1" stop-color="rgb(20.576477%, 34.767151%, 48.916626%)" offset="0.09375"/><stop stop-opacity="1" stop-color="rgb(20.779419%, 34.890747%, 49.058533%)" offset="0.0976562"/><stop stop-opacity="1" stop-color="rgb(20.983887%, 35.014343%, 49.200439%)" offset="0.101562"/><stop stop-opacity="1" stop-color="rgb(21.186829%, 35.137939%, 49.342346%)" offset="0.105469"/><stop stop-opacity="1" stop-color="rgb(21.389771%, 35.261536%, 49.485779%)" offset="0.109375"/><stop stop-opacity="1" stop-color="rgb(21.592712%, 35.385132%, 49.627686%)" offset="0.113281"/><stop stop-opacity="1" stop-color="rgb(21.795654%, 35.508728%, 49.771118%)" offset="0.117188"/><stop stop-opacity="1" stop-color="rgb(21.998596%, 35.632324%, 49.913025%)" offset="0.121094"/><stop stop-opacity="1" stop-color="rgb(22.203064%, 35.75592%, 50.054932%)" offset="0.125"/><stop stop-opacity="1" stop-color="rgb(22.406006%, 35.879517%, 50.196838%)" offset="0.128906"/><stop stop-opacity="1" stop-color="rgb(22.608948%, 36.003113%, 50.340271%)" offset="0.132812"/><stop stop-opacity="1" stop-color="rgb(22.81189%, 36.126709%, 50.482178%)" offset="0.136719"/><stop stop-opacity="1" stop-color="rgb(23.014832%, 36.250305%, 50.624084%)" offset="0.140625"/><stop stop-opacity="1" stop-color="rgb(23.217773%, 36.373901%, 50.765991%)" offset="0.144531"/><stop stop-opacity="1" stop-color="rgb(23.422241%, 36.497498%, 50.909424%)" offset="0.148438"/><stop stop-opacity="1" stop-color="rgb(23.625183%, 36.621094%, 51.051331%)" offset="0.152344"/><stop stop-opacity="1" stop-color="rgb(23.828125%, 36.74469%, 51.194763%)" offset="0.15625"/><stop stop-opacity="1" stop-color="rgb(24.031067%, 36.868286%, 51.33667%)" offset="0.160156"/><stop stop-opacity="1" stop-color="rgb(24.235535%, 36.993408%, 51.478577%)" offset="0.164062"/><stop stop-opacity="1" stop-color="rgb(24.438477%, 37.117004%, 51.620483%)" offset="0.167969"/><stop stop-opacity="1" stop-color="rgb(24.641418%, 37.240601%, 51.763916%)" offset="0.171875"/><stop stop-opacity="1" stop-color="rgb(24.84436%, 37.364197%, 51.905823%)" offset="0.175781"/><stop stop-opacity="1" stop-color="rgb(25.047302%, 37.487793%, 52.049255%)" offset="0.179688"/><stop stop-opacity="1" stop-color="rgb(25.250244%, 37.611389%, 52.191162%)" offset="0.183594"/><stop stop-opacity="1" stop-color="rgb(25.454712%, 37.734985%, 52.333069%)" offset="0.1875"/><stop stop-opacity="1" stop-color="rgb(25.657654%, 37.858582%, 52.474976%)" offset="0.191406"/><stop stop-opacity="1" stop-color="rgb(25.860596%, 37.982178%, 52.618408%)" offset="0.195312"/><stop stop-opacity="1" stop-color="rgb(26.063538%, 38.105774%, 52.760315%)" offset="0.199219"/><stop stop-opacity="1" stop-color="rgb(26.266479%, 38.22937%, 52.902222%)" offset="0.203125"/><stop stop-opacity="1" stop-color="rgb(26.469421%, 38.352966%, 53.044128%)" offset="0.207031"/><stop stop-opacity="1" stop-color="rgb(26.673889%, 38.476562%, 53.187561%)" offset="0.210938"/><stop stop-opacity="1" stop-color="rgb(26.876831%, 38.600159%, 53.329468%)" offset="0.214844"/><stop stop-opacity="1" stop-color="rgb(27.079773%, 38.723755%, 53.4729%)" offset="0.21875"/><stop stop-opacity="1" stop-color="rgb(27.282715%, 38.847351%, 53.614807%)" offset="0.222656"/><stop stop-opacity="1" stop-color="rgb(27.487183%, 38.970947%, 53.756714%)" offset="0.226563"/><stop stop-opacity="1" stop-color="rgb(27.690125%, 39.094543%, 53.898621%)" offset="0.230469"/><stop stop-opacity="1" stop-color="rgb(27.893066%, 39.21814%, 54.042053%)" offset="0.234375"/><stop stop-opacity="1" stop-color="rgb(28.096008%, 39.341736%, 54.18396%)" offset="0.238281"/><stop stop-opacity="1" stop-color="rgb(28.29895%, 39.465332%, 54.327393%)" offset="0.242188"/><stop stop-opacity="1" stop-color="rgb(28.501892%, 39.588928%, 54.469299%)" offset="0.246094"/><stop stop-opacity="1" stop-color="rgb(28.70636%, 39.712524%, 54.611206%)" offset="0.25"/><stop stop-opacity="1" stop-color="rgb(28.909302%, 39.836121%, 54.753113%)" offset="0.253906"/><stop stop-opacity="1" stop-color="rgb(29.112244%, 39.959717%, 54.896545%)" offset="0.257812"/><stop stop-opacity="1" stop-color="rgb(29.315186%, 40.083313%, 55.038452%)" offset="0.261719"/><stop stop-opacity="1" stop-color="rgb(29.518127%, 40.208435%, 55.180359%)" offset="0.265625"/><stop stop-opacity="1" stop-color="rgb(29.721069%, 40.332031%, 55.322266%)" offset="0.269531"/><stop stop-opacity="1" stop-color="rgb(29.925537%, 40.455627%, 55.465698%)" offset="0.273438"/><stop stop-opacity="1" stop-color="rgb(30.128479%, 40.579224%, 55.607605%)" offset="0.277344"/><stop stop-opacity="1" stop-color="rgb(30.331421%, 40.70282%, 55.751038%)" offset="0.28125"/><stop stop-opacity="1" stop-color="rgb(30.534363%, 40.826416%, 55.892944%)" offset="0.285156"/><stop stop-opacity="1" stop-color="rgb(30.738831%, 40.950012%, 56.034851%)" offset="0.289062"/><stop stop-opacity="1" stop-color="rgb(30.941772%, 41.073608%, 56.176758%)" offset="0.292969"/><stop stop-opacity="1" stop-color="rgb(31.144714%, 41.197205%, 56.32019%)" offset="0.296875"/><stop stop-opacity="1" stop-color="rgb(31.347656%, 41.320801%, 56.462097%)" offset="0.300781"/><stop stop-opacity="1" stop-color="rgb(31.550598%, 41.444397%, 56.604004%)" offset="0.304688"/><stop stop-opacity="1" stop-color="rgb(31.75354%, 41.567993%, 56.745911%)" offset="0.308594"/><stop stop-opacity="1" stop-color="rgb(31.958008%, 41.691589%, 56.889343%)" offset="0.3125"/><stop stop-opacity="1" stop-color="rgb(32.16095%, 41.815186%, 57.03125%)" offset="0.316406"/><stop stop-opacity="1" stop-color="rgb(32.363892%, 41.938782%, 57.174683%)" offset="0.320312"/><stop stop-opacity="1" stop-color="rgb(32.566833%, 42.062378%, 57.316589%)" offset="0.324219"/><stop stop-opacity="1" stop-color="rgb(32.771301%, 42.185974%, 57.458496%)" offset="0.328125"/><stop stop-opacity="1" stop-color="rgb(32.974243%, 42.30957%, 57.600403%)" offset="0.332031"/><stop stop-opacity="1" stop-color="rgb(33.177185%, 42.433167%, 57.743835%)" offset="0.335938"/><stop stop-opacity="1" stop-color="rgb(33.380127%, 42.556763%, 57.885742%)" offset="0.339844"/><stop stop-opacity="1" stop-color="rgb(33.583069%, 42.680359%, 58.029175%)" offset="0.34375"/><stop stop-opacity="1" stop-color="rgb(33.786011%, 42.803955%, 58.171082%)" offset="0.347656"/><stop stop-opacity="1" stop-color="rgb(33.990479%, 42.927551%, 58.312988%)" offset="0.351562"/><stop stop-opacity="1" stop-color="rgb(34.19342%, 43.051147%, 58.454895%)" offset="0.355469"/><stop stop-opacity="1" stop-color="rgb(34.396362%, 43.174744%, 58.598328%)" offset="0.359375"/><stop stop-opacity="1" stop-color="rgb(34.599304%, 43.29834%, 58.740234%)" offset="0.363281"/><stop stop-opacity="1" stop-color="rgb(34.802246%, 43.423462%, 58.882141%)" offset="0.367188"/><stop stop-opacity="1" stop-color="rgb(35.005188%, 43.547058%, 59.024048%)" offset="0.371094"/><stop stop-opacity="1" stop-color="rgb(35.209656%, 43.670654%, 59.16748%)" offset="0.375"/><stop stop-opacity="1" stop-color="rgb(35.412598%, 43.79425%, 59.309387%)" offset="0.378906"/><stop stop-opacity="1" stop-color="rgb(35.61554%, 43.917847%, 59.45282%)" offset="0.382812"/><stop stop-opacity="1" stop-color="rgb(35.818481%, 44.041443%, 59.594727%)" offset="0.386719"/><stop stop-opacity="1" stop-color="rgb(36.022949%, 44.165039%, 59.736633%)" offset="0.390625"/><stop stop-opacity="1" stop-color="rgb(36.225891%, 44.288635%, 59.87854%)" offset="0.394531"/><stop stop-opacity="1" stop-color="rgb(36.428833%, 44.412231%, 60.021973%)" offset="0.398438"/><stop stop-opacity="1" stop-color="rgb(36.631775%, 44.535828%, 60.163879%)" offset="0.402344"/><stop stop-opacity="1" stop-color="rgb(36.834717%, 44.659424%, 60.305786%)" offset="0.40625"/><stop stop-opacity="1" stop-color="rgb(37.037659%, 44.78302%, 60.447693%)" offset="0.410156"/><stop stop-opacity="1" stop-color="rgb(37.242126%, 44.906616%, 60.591125%)" offset="0.414062"/><stop stop-opacity="1" stop-color="rgb(37.445068%, 45.030212%, 60.733032%)" offset="0.417969"/><stop stop-opacity="1" stop-color="rgb(37.64801%, 45.153809%, 60.876465%)" offset="0.421875"/><stop stop-opacity="1" stop-color="rgb(37.850952%, 45.277405%, 61.018372%)" offset="0.425781"/><stop stop-opacity="1" stop-color="rgb(38.053894%, 45.401001%, 61.160278%)" offset="0.429688"/><stop stop-opacity="1" stop-color="rgb(38.256836%, 45.524597%, 61.302185%)" offset="0.433594"/><stop stop-opacity="1" stop-color="rgb(38.461304%, 45.648193%, 61.445618%)" offset="0.4375"/><stop stop-opacity="1" stop-color="rgb(38.664246%, 45.77179%, 61.587524%)" offset="0.441406"/><stop stop-opacity="1" stop-color="rgb(38.867188%, 45.895386%, 61.730957%)" offset="0.445312"/><stop stop-opacity="1" stop-color="rgb(39.070129%, 46.018982%, 61.872864%)" offset="0.449219"/><stop stop-opacity="1" stop-color="rgb(39.274597%, 46.142578%, 62.014771%)" offset="0.453125"/><stop stop-opacity="1" stop-color="rgb(39.477539%, 46.266174%, 62.156677%)" offset="0.457031"/><stop stop-opacity="1" stop-color="rgb(39.680481%, 46.389771%, 62.30011%)" offset="0.460938"/><stop stop-opacity="1" stop-color="rgb(39.883423%, 46.513367%, 62.442017%)" offset="0.464844"/><stop stop-opacity="1" stop-color="rgb(40.086365%, 46.638489%, 62.583923%)" offset="0.46875"/><stop stop-opacity="1" stop-color="rgb(40.289307%, 46.762085%, 62.72583%)" offset="0.472656"/><stop stop-opacity="1" stop-color="rgb(40.493774%, 46.885681%, 62.869263%)" offset="0.476562"/><stop stop-opacity="1" stop-color="rgb(40.696716%, 47.009277%, 63.011169%)" offset="0.480469"/><stop stop-opacity="1" stop-color="rgb(40.899658%, 47.132874%, 63.154602%)" offset="0.484375"/><stop stop-opacity="1" stop-color="rgb(41.1026%, 47.25647%, 63.296509%)" offset="0.488281"/><stop stop-opacity="1" stop-color="rgb(41.305542%, 47.380066%, 63.438416%)" offset="0.492187"/><stop stop-opacity="1" stop-color="rgb(41.508484%, 47.503662%, 63.580322%)" offset="0.496094"/><stop stop-opacity="1" stop-color="rgb(41.712952%, 47.627258%, 63.723755%)" offset="0.5"/><stop stop-opacity="1" stop-color="rgb(41.915894%, 47.750854%, 63.865662%)" offset="0.503906"/><stop stop-opacity="1" stop-color="rgb(42.118835%, 47.874451%, 64.009094%)" offset="0.507812"/><stop stop-opacity="1" stop-color="rgb(42.321777%, 47.998047%, 64.151001%)" offset="0.511719"/><stop stop-opacity="1" stop-color="rgb(42.526245%, 48.121643%, 64.292908%)" offset="0.515625"/><stop stop-opacity="1" stop-color="rgb(42.729187%, 48.245239%, 64.434814%)" offset="0.519531"/><stop stop-opacity="1" stop-color="rgb(42.932129%, 48.368835%, 64.578247%)" offset="0.523438"/><stop stop-opacity="1" stop-color="rgb(43.135071%, 48.492432%, 64.720154%)" offset="0.527344"/><stop stop-opacity="1" stop-color="rgb(43.338013%, 48.616028%, 64.862061%)" offset="0.53125"/><stop stop-opacity="1" stop-color="rgb(43.540955%, 48.739624%, 65.003967%)" offset="0.535156"/><stop stop-opacity="1" stop-color="rgb(43.745422%, 48.86322%, 65.1474%)" offset="0.539062"/><stop stop-opacity="1" stop-color="rgb(43.948364%, 48.986816%, 65.289307%)" offset="0.542969"/><stop stop-opacity="1" stop-color="rgb(44.151306%, 49.110413%, 65.432739%)" offset="0.546875"/><stop stop-opacity="1" stop-color="rgb(44.354248%, 49.234009%, 65.574646%)" offset="0.550781"/><stop stop-opacity="1" stop-color="rgb(44.55719%, 49.357605%, 65.716553%)" offset="0.554688"/><stop stop-opacity="1" stop-color="rgb(44.760132%, 49.481201%, 65.858459%)" offset="0.558594"/><stop stop-opacity="1" stop-color="rgb(44.9646%, 49.604797%, 66.001892%)" offset="0.5625"/><stop stop-opacity="1" stop-color="rgb(45.167542%, 49.728394%, 66.143799%)" offset="0.566406"/><stop stop-opacity="1" stop-color="rgb(45.370483%, 49.853516%, 66.285706%)" offset="0.570312"/><stop stop-opacity="1" stop-color="rgb(45.573425%, 49.977112%, 66.427612%)" offset="0.574219"/><stop stop-opacity="1" stop-color="rgb(45.777893%, 50.100708%, 66.571045%)" offset="0.578125"/><stop stop-opacity="1" stop-color="rgb(45.980835%, 50.224304%, 66.712952%)" offset="0.582031"/><stop stop-opacity="1" stop-color="rgb(46.183777%, 50.3479%, 66.856384%)" offset="0.585938"/><stop stop-opacity="1" stop-color="rgb(46.386719%, 50.471497%, 66.998291%)" offset="0.589844"/><stop stop-opacity="1" stop-color="rgb(46.589661%, 50.595093%, 67.140198%)" offset="0.59375"/><stop stop-opacity="1" stop-color="rgb(46.792603%, 50.718689%, 67.282104%)" offset="0.597656"/><stop stop-opacity="1" stop-color="rgb(46.99707%, 50.842285%, 67.425537%)" offset="0.601562"/><stop stop-opacity="1" stop-color="rgb(47.200012%, 50.965881%, 67.567444%)" offset="0.605469"/><stop stop-opacity="1" stop-color="rgb(47.402954%, 51.089478%, 67.710876%)" offset="0.609375"/><stop stop-opacity="1" stop-color="rgb(47.605896%, 51.213074%, 67.852783%)" offset="0.613281"/><stop stop-opacity="1" stop-color="rgb(47.808838%, 51.33667%, 67.99469%)" offset="0.617188"/><stop stop-opacity="1" stop-color="rgb(48.01178%, 51.460266%, 68.136597%)" offset="0.621094"/><stop stop-opacity="1" stop-color="rgb(48.216248%, 51.583862%, 68.280029%)" offset="0.625"/><stop stop-opacity="1" stop-color="rgb(48.419189%, 51.707458%, 68.421936%)" offset="0.628906"/><stop stop-opacity="1" stop-color="rgb(48.622131%, 51.831055%, 68.563843%)" offset="0.632812"/><stop stop-opacity="1" stop-color="rgb(48.825073%, 51.954651%, 68.70575%)" offset="0.636719"/><stop stop-opacity="1" stop-color="rgb(49.029541%, 52.078247%, 68.849182%)" offset="0.640625"/><stop stop-opacity="1" stop-color="rgb(49.232483%, 52.201843%, 68.991089%)" offset="0.644531"/><stop stop-opacity="1" stop-color="rgb(49.435425%, 52.325439%, 69.134521%)" offset="0.648438"/><stop stop-opacity="1" stop-color="rgb(49.638367%, 52.449036%, 69.276428%)" offset="0.652344"/><stop stop-opacity="1" stop-color="rgb(49.841309%, 52.572632%, 69.418335%)" offset="0.65625"/><stop stop-opacity="1" stop-color="rgb(50.04425%, 52.696228%, 69.560242%)" offset="0.660156"/><stop stop-opacity="1" stop-color="rgb(50.248718%, 52.819824%, 69.703674%)" offset="0.664062"/><stop stop-opacity="1" stop-color="rgb(50.45166%, 52.94342%, 69.845581%)" offset="0.667969"/><stop stop-opacity="1" stop-color="rgb(50.654602%, 53.067017%, 69.987488%)" offset="0.671875"/><stop stop-opacity="1" stop-color="rgb(50.857544%, 53.190613%, 70.129395%)" offset="0.675781"/><stop stop-opacity="1" stop-color="rgb(51.060486%, 53.315735%, 70.272827%)" offset="0.679688"/><stop stop-opacity="1" stop-color="rgb(51.263428%, 53.439331%, 70.414734%)" offset="0.683594"/><stop stop-opacity="1" stop-color="rgb(51.467896%, 53.562927%, 70.558167%)" offset="0.6875"/><stop stop-opacity="1" stop-color="rgb(51.670837%, 53.686523%, 70.700073%)" offset="0.691406"/><stop stop-opacity="1" stop-color="rgb(51.873779%, 53.81012%, 70.84198%)" offset="0.695312"/><stop stop-opacity="1" stop-color="rgb(52.076721%, 53.933716%, 70.983887%)" offset="0.699219"/><stop stop-opacity="1" stop-color="rgb(52.281189%, 54.057312%, 71.127319%)" offset="0.703125"/><stop stop-opacity="1" stop-color="rgb(52.484131%, 54.180908%, 71.269226%)" offset="0.707031"/><stop stop-opacity="1" stop-color="rgb(52.687073%, 54.304504%, 71.412659%)" offset="0.710938"/><stop stop-opacity="1" stop-color="rgb(52.890015%, 54.428101%, 71.554565%)" offset="0.714844"/><stop stop-opacity="1" stop-color="rgb(53.092957%, 54.551697%, 71.696472%)" offset="0.71875"/><stop stop-opacity="1" stop-color="rgb(53.295898%, 54.675293%, 71.838379%)" offset="0.722656"/><stop stop-opacity="1" stop-color="rgb(53.500366%, 54.798889%, 71.981812%)" offset="0.726562"/><stop stop-opacity="1" stop-color="rgb(53.703308%, 54.922485%, 72.123718%)" offset="0.730469"/><stop stop-opacity="1" stop-color="rgb(53.90625%, 55.046082%, 72.265625%)" offset="0.734375"/><stop stop-opacity="1" stop-color="rgb(54.109192%, 55.169678%, 72.407532%)" offset="0.738281"/><stop stop-opacity="1" stop-color="rgb(54.31366%, 55.293274%, 72.550964%)" offset="0.742188"/><stop stop-opacity="1" stop-color="rgb(54.516602%, 55.41687%, 72.692871%)" offset="0.746094"/><stop stop-opacity="1" stop-color="rgb(54.719543%, 55.540466%, 72.836304%)" offset="0.75"/><stop stop-opacity="1" stop-color="rgb(54.922485%, 55.664062%, 72.97821%)" offset="0.753906"/><stop stop-opacity="1" stop-color="rgb(55.125427%, 55.787659%, 73.120117%)" offset="0.757812"/><stop stop-opacity="1" stop-color="rgb(55.328369%, 55.911255%, 73.262024%)" offset="0.761719"/><stop stop-opacity="1" stop-color="rgb(55.532837%, 56.034851%, 73.405457%)" offset="0.765625"/><stop stop-opacity="1" stop-color="rgb(55.735779%, 56.158447%, 73.547363%)" offset="0.769531"/><stop stop-opacity="1" stop-color="rgb(55.938721%, 56.282043%, 73.690796%)" offset="0.773438"/><stop stop-opacity="1" stop-color="rgb(56.141663%, 56.40564%, 73.832703%)" offset="0.777344"/><stop stop-opacity="1" stop-color="rgb(56.344604%, 56.530762%, 73.974609%)" offset="0.78125"/><stop stop-opacity="1" stop-color="rgb(56.547546%, 56.654358%, 74.116516%)" offset="0.785156"/><stop stop-opacity="1" stop-color="rgb(56.752014%, 56.777954%, 74.259949%)" offset="0.789062"/><stop stop-opacity="1" stop-color="rgb(56.954956%, 56.90155%, 74.401855%)" offset="0.792969"/><stop stop-opacity="1" stop-color="rgb(57.157898%, 57.025146%, 74.543762%)" offset="0.796875"/><stop stop-opacity="1" stop-color="rgb(57.36084%, 57.148743%, 74.685669%)" offset="0.800781"/><stop stop-opacity="1" stop-color="rgb(57.565308%, 57.272339%, 74.829102%)" offset="0.804688"/><stop stop-opacity="1" stop-color="rgb(57.76825%, 57.395935%, 74.971008%)" offset="0.808594"/><stop stop-opacity="1" stop-color="rgb(57.971191%, 57.519531%, 75.114441%)" offset="0.8125"/><stop stop-opacity="1" stop-color="rgb(58.174133%, 57.643127%, 75.256348%)" offset="0.816406"/><stop stop-opacity="1" stop-color="rgb(58.377075%, 57.766724%, 75.398254%)" offset="0.820312"/><stop stop-opacity="1" stop-color="rgb(58.580017%, 57.89032%, 75.540161%)" offset="0.824219"/><stop stop-opacity="1" stop-color="rgb(58.784485%, 58.013916%, 75.683594%)" offset="0.828125"/><stop stop-opacity="1" stop-color="rgb(58.987427%, 58.137512%, 75.8255%)" offset="0.832031"/><stop stop-opacity="1" stop-color="rgb(59.190369%, 58.261108%, 75.967407%)" offset="0.835938"/><stop stop-opacity="1" stop-color="rgb(59.393311%, 58.384705%, 76.109314%)" offset="0.839844"/><stop stop-opacity="1" stop-color="rgb(59.596252%, 58.508301%, 76.252747%)" offset="0.84375"/><stop stop-opacity="1" stop-color="rgb(59.799194%, 58.631897%, 76.394653%)" offset="0.847656"/><stop stop-opacity="1" stop-color="rgb(60.003662%, 58.755493%, 76.538086%)" offset="0.851562"/><stop stop-opacity="1" stop-color="rgb(60.206604%, 58.879089%, 76.679993%)" offset="0.855469"/><stop stop-opacity="1" stop-color="rgb(60.409546%, 59.002686%, 76.821899%)" offset="0.859375"/><stop stop-opacity="1" stop-color="rgb(60.612488%, 59.126282%, 76.963806%)" offset="0.863281"/><stop stop-opacity="1" stop-color="rgb(60.816956%, 59.249878%, 77.107239%)" offset="0.867188"/><stop stop-opacity="1" stop-color="rgb(61.019897%, 59.373474%, 77.249146%)" offset="0.871094"/><stop stop-opacity="1" stop-color="rgb(61.222839%, 59.49707%, 77.392578%)" offset="0.875"/><stop stop-opacity="1" stop-color="rgb(61.425781%, 59.620667%, 77.534485%)" offset="0.878906"/><stop stop-opacity="1" stop-color="rgb(61.628723%, 59.745789%, 77.676392%)" offset="0.882812"/><stop stop-opacity="1" stop-color="rgb(61.831665%, 59.869385%, 77.818298%)" offset="0.886719"/><stop stop-opacity="1" stop-color="rgb(62.036133%, 59.992981%, 77.961731%)" offset="0.890625"/><stop stop-opacity="1" stop-color="rgb(62.239075%, 60.116577%, 78.103638%)" offset="0.894531"/><stop stop-opacity="1" stop-color="rgb(62.442017%, 60.240173%, 78.245544%)" offset="0.898438"/><stop stop-opacity="1" stop-color="rgb(62.644958%, 60.36377%, 78.387451%)" offset="0.902344"/><stop stop-opacity="1" stop-color="rgb(62.8479%, 60.487366%, 78.530884%)" offset="0.90625"/><stop stop-opacity="1" stop-color="rgb(63.050842%, 60.610962%, 78.672791%)" offset="0.910156"/><stop stop-opacity="1" stop-color="rgb(63.25531%, 60.734558%, 78.816223%)" offset="0.914062"/><stop stop-opacity="1" stop-color="rgb(63.458252%, 60.858154%, 78.95813%)" offset="0.917969"/><stop stop-opacity="1" stop-color="rgb(63.661194%, 60.98175%, 79.100037%)" offset="0.921875"/><stop stop-opacity="1" stop-color="rgb(63.864136%, 61.105347%, 79.241943%)" offset="0.925781"/><stop stop-opacity="1" stop-color="rgb(64.068604%, 61.228943%, 79.385376%)" offset="0.929688"/><stop stop-opacity="1" stop-color="rgb(64.271545%, 61.352539%, 79.527283%)" offset="0.933594"/><stop stop-opacity="1" stop-color="rgb(64.474487%, 61.476135%, 79.669189%)" offset="0.9375"/><stop stop-opacity="1" stop-color="rgb(64.677429%, 61.599731%, 79.811096%)" offset="0.941406"/><stop stop-opacity="1" stop-color="rgb(64.880371%, 61.723328%, 79.954529%)" offset="0.945313"/><stop stop-opacity="1" stop-color="rgb(65.083313%, 61.846924%, 80.096436%)" offset="0.949219"/><stop stop-opacity="1" stop-color="rgb(65.287781%, 61.97052%, 80.239868%)" offset="0.953125"/><stop stop-opacity="1" stop-color="rgb(65.490723%, 62.094116%, 80.381775%)" offset="0.957031"/><stop stop-opacity="1" stop-color="rgb(65.693665%, 62.217712%, 80.523682%)" offset="0.960938"/><stop stop-opacity="1" stop-color="rgb(65.896606%, 62.341309%, 80.665588%)" offset="0.964844"/><stop stop-opacity="1" stop-color="rgb(66.099548%, 62.464905%, 80.809021%)" offset="0.96875"/><stop stop-opacity="1" stop-color="rgb(66.30249%, 62.588501%, 80.950928%)" offset="0.972656"/><stop stop-opacity="1" stop-color="rgb(66.506958%, 62.712097%, 81.09436%)" offset="0.976562"/><stop stop-opacity="1" stop-color="rgb(66.7099%, 62.835693%, 81.236267%)" offset="0.980469"/><stop stop-opacity="1" stop-color="rgb(66.912842%, 62.960815%, 81.378174%)" offset="0.984375"/><stop stop-opacity="1" stop-color="rgb(67.115784%, 63.084412%, 81.520081%)" offset="0.988281"/><stop stop-opacity="1" stop-color="rgb(67.320251%, 63.208008%, 81.663513%)" offset="0.992188"/><stop stop-opacity="1" stop-color="rgb(67.523193%, 63.331604%, 81.80542%)" offset="0.996094"/><stop stop-opacity="1" stop-color="rgb(67.726135%, 63.4552%, 81.947327%)" offset="1"/></linearGradient><clipPath id="4b786d7670"><path d="M 77.527344 103.96875 L 277.777344 103.96875 L 277.777344 355.96875 L 77.527344 355.96875 Z M 77.527344 103.96875 " clip-rule="nonzero"/></clipPath><clipPath id="46ed91fa04"><path d="M 20 74 L 199 74 L 199 252.96875 L 20 252.96875 Z M 20 74 " clip-rule="nonzero"/></clipPath><clipPath id="da2c931ef2"><path d="M 15 49 L 200.777344 49 L 200.777344 103 L 15 103 Z M 15 49 " clip-rule="nonzero"/></clipPath><clipPath id="7a70512309"><path d="M 10 1 L 200.777344 1 L 200.777344 67 L 10 67 Z M 10 1 " clip-rule="nonzero"/></clipPath><clipPath id="2b322168b6"><path d="M 0.527344 53 L 28 53 L 28 84 L 0.527344 84 Z M 0.527344 53 " clip-rule="nonzero"/></clipPath><mask id="b2720adb57"><g filter="url(#2aae8ee199)"><rect x="-155.21" width="511.92" fill="#000000" y="-203.979998" height="660.959984" fill-opacity="0.098"/></g></mask><clipPath id="baa1abcb02"><path d="M 1 1 L 179.851562 1 L 179.851562 35.226562 L 1 35.226562 Z M 1 1 " clip-rule="nonzero"/></clipPath><clipPath id="65653b1f72"><rect x="0" width="180" y="0" height="36"/></clipPath><mask id="3d8d7d9387"><g><g transform="translate(155.21, 203.979998)"><rect x="-155.21" width="511.92" fill="#000000" height="660.959984" y="-203.979998" fill-opacity="0"/><rect x="-155.21" width="511.92" fill="#ffffff" height="660.959984" y="-203.979998" fill-opacity="1"/></g></g></mask><mask id="4c992de410"><g filter="url(#a2c06da1c0)"><g transform="translate(155.21, 203.979998)"><rect x="-155.21" width="511.92" fill="#000000" height="660.959984" y="-203.979998" fill-opacity="0"/><rect x="-155.21" width="511.92" fill="#ffffff" height="660.959984" y="-203.979998" fill-opacity="1"/></g></g></mask><mask id="ca397ad967"><g transform="translate(155.21, 203.979998)"><g mask="url(#b2720adb57)"><rect x="-155.21" width="511.92" fill="#ffffff" y="-203.979998" height="660.959984" fill-opacity="1"/></g></g></mask><g id="6332f560f3" mask="url(#ca397ad967)"><g transform="translate(155.21, 203.979998)"><g transform="matrix(1, 0, 0, 1, 19, 73)"><g clip-path="url(#65653b1f72)"><g clip-path="url(#baa1abcb02)"><path fill="#301313" d="M 179.382812 1.289062 L 1.144531 29.488281 L 1.230469 35.066406 L 179.382812 5.074219 Z M 179.382812 1.289062 " fill-opacity="1" fill-rule="nonzero"/></g></g></g></g></g><g id="7b8b4a3a03" transform="translate(155.21, 203.979998)"><g clip-path="url(#46ed91fa04)"><path fill="#285174" d="M 198.382812 74.289062 L 198.382812 185.410156 C 198.382812 186.117188 198.277344 186.8125 198.0625 187.488281 C 197.851562 188.164062 197.542969 188.796875 197.136719 189.378906 C 196.734375 189.960938 196.25 190.46875 195.691406 190.902344 C 195.128906 191.335938 194.515625 191.675781 193.851562 191.917969 L 29.339844 252.558594 C 28.949219 252.703125 28.550781 252.796875 28.136719 252.84375 C 27.722656 252.890625 27.3125 252.890625 26.898438 252.839844 C 26.488281 252.789062 26.085938 252.6875 25.699219 252.539062 C 25.308594 252.394531 24.945312 252.203125 24.601562 251.96875 C 24.257812 251.734375 23.949219 251.460938 23.667969 251.152344 C 23.390625 250.84375 23.152344 250.507812 22.953125 250.140625 C 22.757812 249.777344 22.605469 249.390625 22.496094 248.988281 C 22.390625 248.585938 22.332031 248.179688 22.324219 247.761719 L 20.132812 102.136719 Z M 198.382812 74.289062 " fill-opacity="1" fill-rule="nonzero"/></g><path fill="#eae7da" d="M 36.203125 207.621094 C 36.261719 207.808594 36.390625 207.902344 36.589844 207.902344 C 36.628906 207.910156 36.667969 207.910156 36.710938 207.902344 L 108.851562 186.058594 L 108.851562 207.5 C 108.851562 207.621094 108.894531 207.71875 108.976562 207.804688 C 109.0625 207.886719 109.160156 207.929688 109.28125 207.929688 C 109.398438 207.929688 109.5 207.886719 109.582031 207.804688 C 109.664062 207.71875 109.707031 207.621094 109.707031 207.5 L 109.707031 185.804688 L 187.492188 162.238281 C 187.597656 162.207031 187.679688 162.140625 187.730469 162.046875 C 187.785156 161.949219 187.796875 161.847656 187.765625 161.742188 C 187.734375 161.632812 187.667969 161.554688 187.570312 161.5 C 187.472656 161.445312 187.371094 161.4375 187.261719 161.464844 L 109.683594 184.953125 L 109.683594 169.9375 L 187.46875 148.324219 C 187.574219 148.296875 187.65625 148.234375 187.710938 148.136719 C 187.765625 148.039062 187.777344 147.9375 187.746094 147.828125 C 187.71875 147.722656 187.65625 147.640625 187.558594 147.585938 C 187.460938 147.53125 187.359375 147.515625 187.253906 147.546875 L 109.664062 169.097656 L 109.664062 153.113281 L 187.449219 133.675781 C 187.558594 133.652344 187.640625 133.589844 187.699219 133.492188 C 187.757812 133.394531 187.773438 133.292969 187.746094 133.183594 C 187.71875 133.078125 187.65625 132.992188 187.558594 132.933594 C 187.464844 132.878906 187.363281 132.863281 187.253906 132.890625 L 151.515625 141.824219 L 151.515625 107.6875 L 187.414062 100.742188 C 187.527344 100.71875 187.613281 100.664062 187.675781 100.574219 C 187.738281 100.480469 187.761719 100.378906 187.742188 100.269531 C 187.71875 100.160156 187.664062 100.074219 187.574219 100.007812 C 187.480469 99.945312 187.378906 99.925781 187.269531 99.945312 L 36.511719 129.136719 C 36.402344 129.160156 36.320312 129.214844 36.257812 129.308594 C 36.195312 129.398438 36.175781 129.5 36.195312 129.609375 C 36.234375 129.828125 36.367188 129.9375 36.589844 129.933594 L 36.667969 129.933594 L 86.003906 120.382812 L 86.003906 158.203125 L 36.496094 170.5625 C 36.386719 170.589844 36.300781 170.648438 36.242188 170.746094 C 36.183594 170.839844 36.167969 170.941406 36.195312 171.050781 C 36.25 171.253906 36.382812 171.355469 36.589844 171.359375 L 36.683594 171.359375 L 108.851562 153.371094 L 108.851562 185.230469 L 36.46875 207.117188 C 36.363281 207.148438 36.285156 207.214844 36.230469 207.3125 C 36.179688 207.410156 36.171875 207.515625 36.203125 207.621094 Z M 150.746094 142.019531 L 86.808594 157.996094 L 86.808594 120.230469 L 150.746094 107.851562 Z M 150.746094 142.019531 " fill-opacity="1" fill-rule="nonzero"/><g clip-path="url(#da2c931ef2)"><path fill="#182a41" d="M 198.777344 74.226562 L 18.3125 102.769531 C 18.128906 102.800781 17.945312 102.808594 17.757812 102.800781 C 17.570312 102.789062 17.386719 102.757812 17.207031 102.707031 C 17.027344 102.65625 16.855469 102.585938 16.6875 102.496094 C 16.523438 102.410156 16.371094 102.304688 16.230469 102.179688 C 16.085938 102.058594 15.960938 101.921875 15.847656 101.769531 C 15.738281 101.621094 15.640625 101.460938 15.566406 101.289062 C 15.488281 101.117188 15.429688 100.941406 15.394531 100.757812 C 15.355469 100.574219 15.335938 100.386719 15.339844 100.199219 L 15.339844 71.238281 C 15.335938 70.808594 15.414062 70.394531 15.566406 69.996094 C 15.71875 69.597656 15.9375 69.238281 16.226562 68.921875 C 16.515625 68.605469 16.847656 68.351562 17.230469 68.160156 C 17.613281 67.96875 18.015625 67.851562 18.441406 67.8125 L 198.683594 49.824219 C 199.242188 49.769531 199.734375 49.929688 200.152344 50.3125 C 200.570312 50.6875 200.78125 51.160156 200.777344 51.726562 L 200.777344 71.882812 C 200.777344 72.164062 200.726562 72.4375 200.628906 72.703125 C 200.53125 72.96875 200.390625 73.210938 200.207031 73.425781 C 200.023438 73.640625 199.808594 73.816406 199.5625 73.957031 C 199.316406 74.09375 199.054688 74.183594 198.777344 74.226562 Z M 198.777344 74.226562 " fill-opacity="1" fill-rule="nonzero"/></g><path fill="#eae7da" d="M 194.648438 50.183594 L 178.21875 77.484375 L 157.761719 80.710938 L 174.261719 52.222656 Z M 194.648438 50.183594 " fill-opacity="1" fill-rule="nonzero"/><path fill="#eae7da" d="M 151.496094 54.5 L 132.34375 84.738281 L 109.84375 88.292969 L 130.898438 56.554688 Z M 151.496094 54.5 " fill-opacity="1" fill-rule="nonzero"/><path fill="#eae7da" d="M 109.75 58.671875 L 85.117188 92.207031 L 58.683594 96.390625 L 85.585938 61.085938 Z M 109.75 58.671875 " fill-opacity="1" fill-rule="nonzero"/><path fill="#eae7da" d="M 18.3125 102.769531 C 17.707031 102.867188 17.136719 102.761719 16.605469 102.445312 C 16.210938 102.214844 15.902344 101.902344 15.675781 101.503906 C 15.453125 101.109375 15.339844 100.683594 15.339844 100.226562 L 15.339844 92.621094 L 39.179688 65.730469 L 62.328125 63.417969 L 33.476562 100.371094 Z M 18.3125 102.769531 " fill-opacity="1" fill-rule="nonzero"/><g clip-path="url(#7a70512309)"><path fill="#182a41" d="M 199.160156 29.90625 L 16.015625 66.269531 C 15.769531 66.328125 15.527344 66.324219 15.285156 66.269531 C 15.042969 66.210938 14.824219 66.101562 14.632812 65.941406 C 14.4375 65.78125 14.292969 65.589844 14.1875 65.359375 C 14.085938 65.132812 14.039062 64.894531 14.046875 64.644531 L 10.785156 32.972656 C 10.792969 32.660156 10.882812 32.375 11.058594 32.117188 C 11.335938 31.664062 11.738281 31.398438 12.261719 31.320312 L 195.246094 1.054688 C 195.621094 0.996094 195.960938 1.078125 196.269531 1.296875 C 196.671875 1.578125 196.871094 1.96875 196.859375 2.460938 L 200.546875 28.226562 C 200.542969 28.566406 200.449219 28.875 200.261719 29.152344 C 200 29.558594 199.632812 29.8125 199.160156 29.90625 Z M 199.160156 29.90625 " fill-opacity="1" fill-rule="nonzero"/></g><path fill="#eae7da" d="M 179.328125 3.695312 L 194.519531 30.832031 L 174.019531 34.902344 L 158.933594 7.0625 Z M 179.328125 3.695312 " fill-opacity="1" fill-rule="nonzero"/><path fill="#eae7da" d="M 137.597656 10.589844 L 151.121094 39.449219 L 130.410156 43.5625 L 116.332031 14.09375 Z M 137.597656 10.589844 " fill-opacity="1" fill-rule="nonzero"/><path fill="#eae7da" d="M 93.21875 17.914062 L 109.152344 47.785156 L 84.851562 52.605469 L 68.925781 21.921875 Z M 93.21875 17.914062 " fill-opacity="1" fill-rule="nonzero"/><path fill="#eae7da" d="M 44.539062 25.949219 L 61.445312 57.25 L 38.042969 61.902344 L 21.160156 29.804688 Z M 44.539062 25.949219 " fill-opacity="1" fill-rule="nonzero"/><g clip-path="url(#2b322168b6)"><path fill="#0c0e14" d="M 27.554688 68.179688 C 27.554688 69.167969 27.46875 70.148438 27.292969 71.117188 C 27.121094 72.085938 26.863281 73.027344 26.527344 73.941406 C 26.1875 74.851562 25.769531 75.71875 25.277344 76.542969 C 24.785156 77.363281 24.222656 78.125 23.597656 78.824219 C 22.96875 79.523438 22.285156 80.144531 21.546875 80.695312 C 20.808594 81.242188 20.03125 81.707031 19.210938 82.085938 C 18.390625 82.464844 17.546875 82.75 16.675781 82.941406 C 15.804688 83.136719 14.925781 83.230469 14.039062 83.230469 C 13.152344 83.230469 12.273438 83.136719 11.402344 82.941406 C 10.535156 82.75 9.6875 82.464844 8.867188 82.085938 C 8.046875 81.707031 7.269531 81.242188 6.53125 80.695312 C 5.792969 80.144531 5.113281 79.523438 4.484375 78.824219 C 3.855469 78.125 3.296875 77.363281 2.804688 76.542969 C 2.3125 75.71875 1.894531 74.851562 1.554688 73.941406 C 1.214844 73.027344 0.957031 72.085938 0.785156 71.117188 C 0.613281 70.148438 0.527344 69.167969 0.527344 68.179688 C 0.527344 67.191406 0.613281 66.214844 0.785156 65.246094 C 0.957031 64.273438 1.214844 63.332031 1.554688 62.421875 C 1.894531 61.507812 2.3125 60.640625 2.804688 59.820312 C 3.296875 58.996094 3.855469 58.238281 4.484375 57.539062 C 5.113281 56.839844 5.792969 56.214844 6.53125 55.667969 C 7.269531 55.117188 8.046875 54.652344 8.867188 54.277344 C 9.6875 53.898438 10.535156 53.613281 11.402344 53.417969 C 12.273438 53.226562 13.152344 53.128906 14.039062 53.128906 C 14.925781 53.128906 15.804688 53.226562 16.675781 53.417969 C 17.546875 53.613281 18.390625 53.898438 19.210938 54.277344 C 20.03125 54.652344 20.808594 55.117188 21.546875 55.667969 C 22.285156 56.214844 22.96875 56.839844 23.597656 57.539062 C 24.222656 58.238281 24.785156 58.996094 25.277344 59.820312 C 25.769531 60.640625 26.1875 61.507812 26.527344 62.421875 C 26.863281 63.332031 27.121094 64.273438 27.292969 65.246094 C 27.46875 66.214844 27.554688 67.191406 27.554688 68.179688 Z M 27.554688 68.179688 " fill-opacity="1" fill-rule="nonzero"/></g><path fill="#182a41" d="M 20.800781 68.179688 C 20.800781 68.675781 20.757812 69.164062 20.671875 69.648438 C 20.585938 70.132812 20.457031 70.605469 20.285156 71.0625 C 20.117188 71.519531 19.910156 71.953125 19.660156 72.363281 C 19.414062 72.773438 19.136719 73.15625 18.820312 73.503906 C 18.507812 73.855469 18.164062 74.167969 17.796875 74.441406 C 17.425781 74.714844 17.039062 74.949219 16.628906 75.136719 C 16.21875 75.328125 15.792969 75.46875 15.359375 75.566406 C 14.921875 75.660156 14.484375 75.710938 14.039062 75.710938 C 13.597656 75.710938 13.15625 75.660156 12.722656 75.566406 C 12.285156 75.46875 11.863281 75.328125 11.453125 75.136719 C 11.042969 74.949219 10.652344 74.714844 10.285156 74.441406 C 9.914062 74.167969 9.574219 73.855469 9.257812 73.503906 C 8.945312 73.15625 8.664062 72.773438 8.417969 72.363281 C 8.171875 71.953125 7.964844 71.519531 7.792969 71.0625 C 7.625 70.605469 7.496094 70.132812 7.410156 69.648438 C 7.320312 69.164062 7.277344 68.675781 7.277344 68.179688 C 7.277344 67.6875 7.320312 67.195312 7.410156 66.710938 C 7.496094 66.226562 7.625 65.753906 7.792969 65.300781 C 7.964844 64.84375 8.171875 64.410156 8.417969 63.996094 C 8.664062 63.585938 8.945312 63.207031 9.257812 62.855469 C 9.574219 62.507812 9.914062 62.195312 10.285156 61.917969 C 10.652344 61.644531 11.042969 61.414062 11.453125 61.222656 C 11.863281 61.035156 12.285156 60.890625 12.722656 60.796875 C 13.15625 60.699219 13.597656 60.652344 14.039062 60.652344 C 14.484375 60.652344 14.921875 60.699219 15.359375 60.796875 C 15.792969 60.890625 16.21875 61.035156 16.628906 61.222656 C 17.039062 61.414062 17.425781 61.644531 17.796875 61.917969 C 18.164062 62.195312 18.507812 62.507812 18.820312 62.855469 C 19.136719 63.207031 19.414062 63.585938 19.660156 63.996094 C 19.910156 64.410156 20.117188 64.84375 20.285156 65.300781 C 20.457031 65.753906 20.585938 66.226562 20.671875 66.710938 C 20.757812 67.195312 20.800781 67.6875 20.800781 68.179688 Z M 20.800781 68.179688 " fill-opacity="1" fill-rule="nonzero"/><path fill="#0c0e14" d="M 18.511719 68.179688 C 18.511719 68.507812 18.480469 68.832031 18.425781 69.152344 C 18.367188 69.472656 18.28125 69.785156 18.171875 70.089844 C 18.058594 70.390625 17.921875 70.679688 17.757812 70.949219 C 17.59375 71.222656 17.410156 71.472656 17.203125 71.707031 C 16.992188 71.9375 16.769531 72.144531 16.523438 72.324219 C 16.28125 72.507812 16.023438 72.660156 15.75 72.785156 C 15.480469 72.910156 15.199219 73.007812 14.914062 73.070312 C 14.625 73.132812 14.332031 73.167969 14.039062 73.167969 C 13.746094 73.167969 13.457031 73.132812 13.167969 73.070312 C 12.878906 73.007812 12.601562 72.910156 12.328125 72.785156 C 12.058594 72.660156 11.800781 72.507812 11.554688 72.324219 C 11.3125 72.144531 11.085938 71.9375 10.878906 71.707031 C 10.671875 71.472656 10.484375 71.222656 10.324219 70.949219 C 10.160156 70.679688 10.023438 70.390625 9.910156 70.089844 C 9.796875 69.785156 9.710938 69.472656 9.65625 69.152344 C 9.597656 68.832031 9.570312 68.507812 9.570312 68.179688 C 9.570312 67.851562 9.597656 67.527344 9.65625 67.207031 C 9.710938 66.886719 9.796875 66.574219 9.910156 66.273438 C 10.023438 65.96875 10.160156 65.683594 10.324219 65.410156 C 10.484375 65.136719 10.671875 64.886719 10.878906 64.65625 C 11.085938 64.421875 11.3125 64.21875 11.554688 64.035156 C 11.800781 63.851562 12.058594 63.699219 12.328125 63.574219 C 12.601562 63.449219 12.878906 63.355469 13.167969 63.289062 C 13.457031 63.226562 13.746094 63.195312 14.039062 63.195312 C 14.332031 63.195312 14.625 63.226562 14.914062 63.289062 C 15.199219 63.355469 15.480469 63.449219 15.75 63.574219 C 16.023438 63.699219 16.28125 63.851562 16.523438 64.035156 C 16.769531 64.21875 16.992188 64.421875 17.203125 64.65625 C 17.410156 64.886719 17.59375 65.136719 17.757812 65.410156 C 17.921875 65.683594 18.058594 65.96875 18.171875 66.273438 C 18.28125 66.574219 18.367188 66.886719 18.425781 67.207031 C 18.480469 67.527344 18.511719 67.851562 18.511719 68.179688 Z M 18.511719 68.179688 " fill-opacity="1" fill-rule="nonzero"/></g><g id="1b5d0a9625" mask="url(#3d8d7d9387)" filter="url(#08b1d86091)"><rect x="0" width="511.92" fill="#000000" y="0" height="660.959984" fill-opacity="1"/></g><g id="47f55d1d58" mask="url(#4c992de410)"><g><g transform="translate(155.21, 203.979998)"><g clip-path="url(#46ed91fa04)"><path fill="#285174" d="M 198.382812 74.289062 L 198.382812 185.410156 C 198.382812 186.117188 198.277344 186.8125 198.0625 187.488281 C 197.851562 188.164062 197.542969 188.796875 197.136719 189.378906 C 196.734375 189.960938 196.25 190.46875 195.691406 190.902344 C 195.128906 191.335938 194.515625 191.675781 193.851562 191.917969 L 29.339844 252.558594 C 28.949219 252.703125 28.550781 252.796875 28.136719 252.84375 C 27.722656 252.890625 27.3125 252.890625 26.898438 252.839844 C 26.488281 252.789062 26.085938 252.6875 25.699219 252.539062 C 25.308594 252.394531 24.945312 252.203125 24.601562 251.96875 C 24.257812 251.734375 23.949219 251.460938 23.667969 251.152344 C 23.390625 250.84375 23.152344 250.507812 22.953125 250.140625 C 22.757812 249.777344 22.605469 249.390625 22.496094 248.988281 C 22.390625 248.585938 22.332031 248.179688 22.324219 247.761719 L 20.132812 102.136719 Z M 198.382812 74.289062 " fill-opacity="1" fill-rule="nonzero"/></g><path fill="#eae7da" d="M 36.203125 207.621094 C 36.261719 207.808594 36.390625 207.902344 36.589844 207.902344 C 36.628906 207.910156 36.667969 207.910156 36.710938 207.902344 L 108.851562 186.058594 L 108.851562 207.5 C 108.851562 207.621094 108.894531 207.71875 108.976562 207.804688 C 109.0625 207.886719 109.160156 207.929688 109.28125 207.929688 C 109.398438 207.929688 109.5 207.886719 109.582031 207.804688 C 109.664062 207.71875 109.707031 207.621094 109.707031 207.5 L 109.707031 185.804688 L 187.492188 162.238281 C 187.597656 162.207031 187.679688 162.140625 187.730469 162.046875 C 187.785156 161.949219 187.796875 161.847656 187.765625 161.742188 C 187.734375 161.632812 187.667969 161.554688 187.570312 161.5 C 187.472656 161.445312 187.371094 161.4375 187.261719 161.464844 L 109.683594 184.953125 L 109.683594 169.9375 L 187.46875 148.324219 C 187.574219 148.296875 187.65625 148.234375 187.710938 148.136719 C 187.765625 148.039062 187.777344 147.9375 187.746094 147.828125 C 187.71875 147.722656 187.65625 147.640625 187.558594 147.585938 C 187.460938 147.53125 187.359375 147.515625 187.253906 147.546875 L 109.664062 169.097656 L 109.664062 153.113281 L 187.449219 133.675781 C 187.558594 133.652344 187.640625 133.589844 187.699219 133.492188 C 187.757812 133.394531 187.773438 133.292969 187.746094 133.183594 C 187.71875 133.078125 187.65625 132.992188 187.558594 132.933594 C 187.464844 132.878906 187.363281 132.863281 187.253906 132.890625 L 151.515625 141.824219 L 151.515625 107.6875 L 187.414062 100.742188 C 187.527344 100.71875 187.613281 100.664062 187.675781 100.574219 C 187.738281 100.480469 187.761719 100.378906 187.742188 100.269531 C 187.71875 100.160156 187.664062 100.074219 187.574219 100.007812 C 187.480469 99.945312 187.378906 99.925781 187.269531 99.945312 L 36.511719 129.136719 C 36.402344 129.160156 36.320312 129.214844 36.257812 129.308594 C 36.195312 129.398438 36.175781 129.5 36.195312 129.609375 C 36.234375 129.828125 36.367188 129.9375 36.589844 129.933594 L 36.667969 129.933594 L 86.003906 120.382812 L 86.003906 158.203125 L 36.496094 170.5625 C 36.386719 170.589844 36.300781 170.648438 36.242188 170.746094 C 36.183594 170.839844 36.167969 170.941406 36.195312 171.050781 C 36.25 171.253906 36.382812 171.355469 36.589844 171.359375 L 36.683594 171.359375 L 108.851562 153.371094 L 108.851562 185.230469 L 36.46875 207.117188 C 36.363281 207.148438 36.285156 207.214844 36.230469 207.3125 C 36.179688 207.410156 36.171875 207.515625 36.203125 207.621094 Z M 150.746094 142.019531 L 86.808594 157.996094 L 86.808594 120.230469 L 150.746094 107.851562 Z M 150.746094 142.019531 " fill-opacity="1" fill-rule="nonzero"/><g clip-path="url(#da2c931ef2)"><path fill="#182a41" d="M 198.777344 74.226562 L 18.3125 102.769531 C 18.128906 102.800781 17.945312 102.808594 17.757812 102.800781 C 17.570312 102.789062 17.386719 102.757812 17.207031 102.707031 C 17.027344 102.65625 16.855469 102.585938 16.6875 102.496094 C 16.523438 102.410156 16.371094 102.304688 16.230469 102.179688 C 16.085938 102.058594 15.960938 101.921875 15.847656 101.769531 C 15.738281 101.621094 15.640625 101.460938 15.566406 101.289062 C 15.488281 101.117188 15.429688 100.941406 15.394531 100.757812 C 15.355469 100.574219 15.335938 100.386719 15.339844 100.199219 L 15.339844 71.238281 C 15.335938 70.808594 15.414062 70.394531 15.566406 69.996094 C 15.71875 69.597656 15.9375 69.238281 16.226562 68.921875 C 16.515625 68.605469 16.847656 68.351562 17.230469 68.160156 C 17.613281 67.96875 18.015625 67.851562 18.441406 67.8125 L 198.683594 49.824219 C 199.242188 49.769531 199.734375 49.929688 200.152344 50.3125 C 200.570312 50.6875 200.78125 51.160156 200.777344 51.726562 L 200.777344 71.882812 C 200.777344 72.164062 200.726562 72.4375 200.628906 72.703125 C 200.53125 72.96875 200.390625 73.210938 200.207031 73.425781 C 200.023438 73.640625 199.808594 73.816406 199.5625 73.957031 C 199.316406 74.09375 199.054688 74.183594 198.777344 74.226562 Z M 198.777344 74.226562 " fill-opacity="1" fill-rule="nonzero"/></g><path fill="#eae7da" d="M 194.648438 50.183594 L 178.21875 77.484375 L 157.761719 80.710938 L 174.261719 52.222656 Z M 194.648438 50.183594 " fill-opacity="1" fill-rule="nonzero"/><path fill="#eae7da" d="M 151.496094 54.5 L 132.34375 84.738281 L 109.84375 88.292969 L 130.898438 56.554688 Z M 151.496094 54.5 " fill-opacity="1" fill-rule="nonzero"/><path fill="#eae7da" d="M 109.75 58.671875 L 85.117188 92.207031 L 58.683594 96.390625 L 85.585938 61.085938 Z M 109.75 58.671875 " fill-opacity="1" fill-rule="nonzero"/><path fill="#eae7da" d="M 18.3125 102.769531 C 17.707031 102.867188 17.136719 102.761719 16.605469 102.445312 C 16.210938 102.214844 15.902344 101.902344 15.675781 101.503906 C 15.453125 101.109375 15.339844 100.683594 15.339844 100.226562 L 15.339844 92.621094 L 39.179688 65.730469 L 62.328125 63.417969 L 33.476562 100.371094 Z M 18.3125 102.769531 " fill-opacity="1" fill-rule="nonzero"/><g clip-path="url(#7a70512309)"><path fill="#182a41" d="M 199.160156 29.90625 L 16.015625 66.269531 C 15.769531 66.328125 15.527344 66.324219 15.285156 66.269531 C 15.042969 66.210938 14.824219 66.101562 14.632812 65.941406 C 14.4375 65.78125 14.292969 65.589844 14.1875 65.359375 C 14.085938 65.132812 14.039062 64.894531 14.046875 64.644531 L 10.785156 32.972656 C 10.792969 32.660156 10.882812 32.375 11.058594 32.117188 C 11.335938 31.664062 11.738281 31.398438 12.261719 31.320312 L 195.246094 1.054688 C 195.621094 0.996094 195.960938 1.078125 196.269531 1.296875 C 196.671875 1.578125 196.871094 1.96875 196.859375 2.460938 L 200.546875 28.226562 C 200.542969 28.566406 200.449219 28.875 200.261719 29.152344 C 200 29.558594 199.632812 29.8125 199.160156 29.90625 Z M 199.160156 29.90625 " fill-opacity="1" fill-rule="nonzero"/></g><path fill="#eae7da" d="M 179.328125 3.695312 L 194.519531 30.832031 L 174.019531 34.902344 L 158.933594 7.0625 Z M 179.328125 3.695312 " fill-opacity="1" fill-rule="nonzero"/><path fill="#eae7da" d="M 137.597656 10.589844 L 151.121094 39.449219 L 130.410156 43.5625 L 116.332031 14.09375 Z M 137.597656 10.589844 " fill-opacity="1" fill-rule="nonzero"/><path fill="#eae7da" d="M 93.21875 17.914062 L 109.152344 47.785156 L 84.851562 52.605469 L 68.925781 21.921875 Z M 93.21875 17.914062 " fill-opacity="1" fill-rule="nonzero"/><path fill="#eae7da" d="M 44.539062 25.949219 L 61.445312 57.25 L 38.042969 61.902344 L 21.160156 29.804688 Z M 44.539062 25.949219 " fill-opacity="1" fill-rule="nonzero"/><g clip-path="url(#2b322168b6)"><path fill="#0c0e14" d="M 27.554688 68.179688 C 27.554688 69.167969 27.46875 70.148438 27.292969 71.117188 C 27.121094 72.085938 26.863281 73.027344 26.527344 73.941406 C 26.1875 74.851562 25.769531 75.71875 25.277344 76.542969 C 24.785156 77.363281 24.222656 78.125 23.597656 78.824219 C 22.96875 79.523438 22.285156 80.144531 21.546875 80.695312 C 20.808594 81.242188 20.03125 81.707031 19.210938 82.085938 C 18.390625 82.464844 17.546875 82.75 16.675781 82.941406 C 15.804688 83.136719 14.925781 83.230469 14.039062 83.230469 C 13.152344 83.230469 12.273438 83.136719 11.402344 82.941406 C 10.535156 82.75 9.6875 82.464844 8.867188 82.085938 C 8.046875 81.707031 7.269531 81.242188 6.53125 80.695312 C 5.792969 80.144531 5.113281 79.523438 4.484375 78.824219 C 3.855469 78.125 3.296875 77.363281 2.804688 76.542969 C 2.3125 75.71875 1.894531 74.851562 1.554688 73.941406 C 1.214844 73.027344 0.957031 72.085938 0.785156 71.117188 C 0.613281 70.148438 0.527344 69.167969 0.527344 68.179688 C 0.527344 67.191406 0.613281 66.214844 0.785156 65.246094 C 0.957031 64.273438 1.214844 63.332031 1.554688 62.421875 C 1.894531 61.507812 2.3125 60.640625 2.804688 59.820312 C 3.296875 58.996094 3.855469 58.238281 4.484375 57.539062 C 5.113281 56.839844 5.792969 56.214844 6.53125 55.667969 C 7.269531 55.117188 8.046875 54.652344 8.867188 54.277344 C 9.6875 53.898438 10.535156 53.613281 11.402344 53.417969 C 12.273438 53.226562 13.152344 53.128906 14.039062 53.128906 C 14.925781 53.128906 15.804688 53.226562 16.675781 53.417969 C 17.546875 53.613281 18.390625 53.898438 19.210938 54.277344 C 20.03125 54.652344 20.808594 55.117188 21.546875 55.667969 C 22.285156 56.214844 22.96875 56.839844 23.597656 57.539062 C 24.222656 58.238281 24.785156 58.996094 25.277344 59.820312 C 25.769531 60.640625 26.1875 61.507812 26.527344 62.421875 C 26.863281 63.332031 27.121094 64.273438 27.292969 65.246094 C 27.46875 66.214844 27.554688 67.191406 27.554688 68.179688 Z M 27.554688 68.179688 " fill-opacity="1" fill-rule="nonzero"/></g><path fill="#182a41" d="M 20.800781 68.179688 C 20.800781 68.675781 20.757812 69.164062 20.671875 69.648438 C 20.585938 70.132812 20.457031 70.605469 20.285156 71.0625 C 20.117188 71.519531 19.910156 71.953125 19.660156 72.363281 C 19.414062 72.773438 19.136719 73.15625 18.820312 73.503906 C 18.507812 73.855469 18.164062 74.167969 17.796875 74.441406 C 17.425781 74.714844 17.039062 74.949219 16.628906 75.136719 C 16.21875 75.328125 15.792969 75.46875 15.359375 75.566406 C 14.921875 75.660156 14.484375 75.710938 14.039062 75.710938 C 13.597656 75.710938 13.15625 75.660156 12.722656 75.566406 C 12.285156 75.46875 11.863281 75.328125 11.453125 75.136719 C 11.042969 74.949219 10.652344 74.714844 10.285156 74.441406 C 9.914062 74.167969 9.574219 73.855469 9.257812 73.503906 C 8.945312 73.15625 8.664062 72.773438 8.417969 72.363281 C 8.171875 71.953125 7.964844 71.519531 7.792969 71.0625 C 7.625 70.605469 7.496094 70.132812 7.410156 69.648438 C 7.320312 69.164062 7.277344 68.675781 7.277344 68.179688 C 7.277344 67.6875 7.320312 67.195312 7.410156 66.710938 C 7.496094 66.226562 7.625 65.753906 7.792969 65.300781 C 7.964844 64.84375 8.171875 64.410156 8.417969 63.996094 C 8.664062 63.585938 8.945312 63.207031 9.257812 62.855469 C 9.574219 62.507812 9.914062 62.195312 10.285156 61.917969 C 10.652344 61.644531 11.042969 61.414062 11.453125 61.222656 C 11.863281 61.035156 12.285156 60.890625 12.722656 60.796875 C 13.15625 60.699219 13.597656 60.652344 14.039062 60.652344 C 14.484375 60.652344 14.921875 60.699219 15.359375 60.796875 C 15.792969 60.890625 16.21875 61.035156 16.628906 61.222656 C 17.039062 61.414062 17.425781 61.644531 17.796875 61.917969 C 18.164062 62.195312 18.507812 62.507812 18.820312 62.855469 C 19.136719 63.207031 19.414062 63.585938 19.660156 63.996094 C 19.910156 64.410156 20.117188 64.84375 20.285156 65.300781 C 20.457031 65.753906 20.585938 66.226562 20.671875 66.710938 C 20.757812 67.195312 20.800781 67.6875 20.800781 68.179688 Z M 20.800781 68.179688 " fill-opacity="1" fill-rule="nonzero"/><path fill="#0c0e14" d="M 18.511719 68.179688 C 18.511719 68.507812 18.480469 68.832031 18.425781 69.152344 C 18.367188 69.472656 18.28125 69.785156 18.171875 70.089844 C 18.058594 70.390625 17.921875 70.679688 17.757812 70.949219 C 17.59375 71.222656 17.410156 71.472656 17.203125 71.707031 C 16.992188 71.9375 16.769531 72.144531 16.523438 72.324219 C 16.28125 72.507812 16.023438 72.660156 15.75 72.785156 C 15.480469 72.910156 15.199219 73.007812 14.914062 73.070312 C 14.625 73.132812 14.332031 73.167969 14.039062 73.167969 C 13.746094 73.167969 13.457031 73.132812 13.167969 73.070312 C 12.878906 73.007812 12.601562 72.910156 12.328125 72.785156 C 12.058594 72.660156 11.800781 72.507812 11.554688 72.324219 C 11.3125 72.144531 11.085938 71.9375 10.878906 71.707031 C 10.671875 71.472656 10.484375 71.222656 10.324219 70.949219 C 10.160156 70.679688 10.023438 70.390625 9.910156 70.089844 C 9.796875 69.785156 9.710938 69.472656 9.65625 69.152344 C 9.597656 68.832031 9.570312 68.507812 9.570312 68.179688 C 9.570312 67.851562 9.597656 67.527344 9.65625 67.207031 C 9.710938 66.886719 9.796875 66.574219 9.910156 66.273438 C 10.023438 65.96875 10.160156 65.683594 10.324219 65.410156 C 10.484375 65.136719 10.671875 64.886719 10.878906 64.65625 C 11.085938 64.421875 11.3125 64.21875 11.554688 64.035156 C 11.800781 63.851562 12.058594 63.699219 12.328125 63.574219 C 12.601562 63.449219 12.878906 63.355469 13.167969 63.289062 C 13.457031 63.226562 13.746094 63.195312 14.039062 63.195312 C 14.332031 63.195312 14.625 63.226562 14.914062 63.289062 C 15.199219 63.355469 15.480469 63.449219 15.75 63.574219 C 16.023438 63.699219 16.28125 63.851562 16.523438 64.035156 C 16.769531 64.21875 16.992188 64.421875 17.203125 64.65625 C 17.410156 64.886719 17.59375 65.136719 17.757812 65.410156 C 17.921875 65.683594 18.058594 65.96875 18.171875 66.273438 C 18.28125 66.574219 18.367188 66.886719 18.425781 67.207031 C 18.480469 67.527344 18.511719 67.851562 18.511719 68.179688 Z M 18.511719 68.179688 " fill-opacity="1" fill-rule="nonzero"/></g></g></g><clipPath id="38d90c91fc"><rect x="0" width="201" y="0" height="253"/></clipPath></defs><g clip-path="url(#dd2244a1f9)"><path fill="#ffffff" d="M 0 0.324219 L 355.5 0.324219 L 355.5 466.074219 L 0 466.074219 Z M 0 0.324219 " fill-opacity="1" fill-rule="nonzero"/><path fill="#ffffff" d="M 0 0.324219 L 355.5 0.324219 L 355.5 459.324219 L 0 459.324219 Z M 0 0.324219 " fill-opacity="1" fill-rule="nonzero"/><path fill="url(#6d2593b9af)" d="M 0 0.324219 L 0 458.675781 L 355 458.675781 L 355 0.324219 Z M 0 0.324219 " fill-rule="nonzero"/></g><g clip-path="url(#4b786d7670)"><g transform="matrix(1, 0, 0, 1, 77, 103)"><g clip-path="url(#38d90c91fc)"><g transform="translate(-155.21, -203.979998)" filter="url(#1615f6e0d8)"><rect x="0" width="511.92" fill="#000000" height="660.959984" y="0" fill-opacity="1"/></g></g></g></g></svg>